<svg xmlns="http://www.w3.org/2000/svg" width="154.142" height="100" viewBox="0 0 154.142 100">
  <g id="logo_hill_side" transform="translate(321.572 -100.682)">
    <g id="Groupe_231" data-name="Groupe 231" transform="translate(-321.572 100.682)">
      <g id="Groupe_230" data-name="Groupe 230">
        <rect id="Rectangle_206" data-name="Rectangle 206" width="6.984" height="29.607" transform="translate(54.298 12.32)" fill="#68ba88"/>
        <rect id="Rectangle_207" data-name="Rectangle 207" width="6.984" height="29.607" transform="translate(92.957 12.32)" fill="#68ba88"/>
        <path id="Tracé_99" data-name="Tracé 99" d="M-234.752,110.838l-4.918-4.918a17.99,17.99,0,0,1,25.378,0l-4.918,4.918a10.923,10.923,0,0,0-15.541,0" transform="translate(304.1 -100.682)" fill="#003943"/>
        <path id="Tracé_100" data-name="Tracé 100" d="M-226.98,165.525a18.114,18.114,0,0,1-12.689-5.213l4.918-4.918a10.924,10.924,0,0,0,15.542,0l4.918,4.918a18.286,18.286,0,0,1-12.689,5.213" transform="translate(304.1 -112.268)" fill="#003943"/>
        <path id="Tracé_101" data-name="Tracé 101" d="M-223.289,129.291a29.723,29.723,0,0,0-3.443-.886c-2.262-.393-4.426-.688-6.689-1.278a31.255,31.255,0,0,1-4.426-1.869c.2,4.132,2.066,7.968,7.672,9.738a29.882,29.882,0,0,0,3.443.886c2.262.393,4.426.688,6.689,1.278a31.252,31.252,0,0,1,4.426,1.869c-.2-4.132-2.066-7.869-7.672-9.738" transform="translate(303.755 -105.908)" fill="#68ba88"/>
        <path id="Tracé_102" data-name="Tracé 102" d="M-210.184,199.115l1.967-4.132a18.23,18.23,0,0,0-9.639-2.853c-6,0-10.033,2.951-10.033,7.673,0,9.836,14.952,6.393,14.952,12.591,0,2.164-1.968,3.344-5.214,3.344a14.337,14.337,0,0,1-9.345-4.033l-1.967,4.033a17.386,17.386,0,0,0,11.312,4.426c6.1,0,10.427-3.049,10.427-7.967,0-9.936-14.853-6.69-14.853-12.787,0-1.869,1.77-2.853,4.525-2.853a17.164,17.164,0,0,1,7.869,2.557m7.475,20.952h4.525v-21.05h-4.525Zm26.657-29.313v11.9a8.293,8.293,0,0,0-7.475-3.837c-5.9,0-10.033,4.328-10.033,10.624,0,6.394,4.033,10.82,10.033,10.82a8.126,8.126,0,0,0,7.377-3.836v3.639h4.525V190.754Zm-6.394,25.673c-3.836,0-6.393-2.853-6.492-6.787,0-4.033,2.656-6.885,6.492-6.885s6.394,2.853,6.394,6.885c0,3.935-2.656,6.787-6.394,6.787m27.05.1a6.145,6.145,0,0,1-6-3.934l15.246-4.624c-.394-5.705-4.23-9.246-9.936-9.148-6.492.1-10.525,4.525-10.525,10.624,0,6.394,4.427,10.624,10.919,10.624a11.228,11.228,0,0,0,9.049-4.23l-2.656-2.459a7.557,7.557,0,0,1-6.1,3.147m-.393-13.967a5.115,5.115,0,0,1,5.213,3.345l-11.508,3.443c0-4.427,2.459-6.787,6.3-6.787" transform="translate(300.29 -120.264)" fill="#68ba88"/>
        <path id="Tracé_103" data-name="Tracé 103" d="M-321.572,192.427v27.64h4.624V208.559h14.655v11.41h4.624V192.427h-4.624v12h-14.655v-12Zm30.986,27.64h4.525v-21.05h-4.525Zm15.344-6.393V190.755h-4.525v23.411c0,4.033,2.262,6.1,5.213,6.1a8.812,8.812,0,0,0,3.935-1.082l-.59-3.738a5.088,5.088,0,0,1-2.067.689c-1.278-.1-1.966-.787-1.966-2.459m12.2,0V190.755h-4.524v23.411c0,4.033,2.262,6.1,5.214,6.1a8.8,8.8,0,0,0,3.933-1.082l-.59-3.738a5.081,5.081,0,0,1-2.066.689c-1.277-.1-1.967-.787-1.967-2.459" transform="translate(321.572 -120.265)" fill="#003943"/>
      </g>
    </g>
  </g>
</svg>
