<svg id="LOGO" xmlns="http://www.w3.org/2000/svg" width="60" height="60" viewBox="0 0 60 60">
  <rect id="Rectangle_166" data-name="Rectangle 166" width="60" height="60" fill="#42145f"/>
  <g id="Groupe_214" data-name="Groupe 214" transform="translate(3.964 44.413)">
    <path id="Tracé_85" data-name="Tracé 85" d="M55.11,120.865H56.8a1.51,1.51,0,0,1-1.693,1.385,2.564,2.564,0,0,1-.038-5.042,1.778,1.778,0,0,1,1.732,1.27l1.963-.847a3.713,3.713,0,0,0-3.618-2.232,4.272,4.272,0,1,0-.077,8.544,3.849,3.849,0,0,0,3.31-1.578,5.12,5.12,0,0,0,.808-3.156H55.11Z" transform="translate(-35.213 -115.4)" fill="#fff"/>
    <path id="Tracé_86" data-name="Tracé 86" d="M75.2,124.205h4.541v-1.77H77.278v-1.385h2.348v-1.77H77.278V117.97h2.463V116.2H75.2Z" transform="translate(-50.222 -115.892)" fill="#fff"/>
    <path id="Tracé_87" data-name="Tracé 87" d="M93.263,116.2H90.3v8.005h2.963a4,4,0,1,0,0-8.005Zm-.385,6.235h-.462V117.97h.462a2.233,2.233,0,1,1,0,4.464Z" transform="translate(-59.511 -115.892)" fill="#fff"/>
    <rect id="Rectangle_167" data-name="Rectangle 167" width="2.078" height="8.005" transform="translate(38.794 0.308)" fill="#fff"/>
    <path id="Tracé_88" data-name="Tracé 88" d="M127.89,116.2h-1.963l-1.809,4.272L122.31,116.2h-1.924L119,124.205h2.117l.77-4.464,1.886,4.464h.693l1.924-4.464.731,4.464h2.117Z" transform="translate(-77.165 -115.892)" fill="#fff"/>
    <path id="Tracé_89" data-name="Tracé 89" d="M31.172,115.5a4.272,4.272,0,1,0,4.272,4.272A4.287,4.287,0,0,0,31.172,115.5Zm0,6.5a2.232,2.232,0,1,1,2.232-2.232A2.234,2.234,0,0,1,31.172,122Z" transform="translate(-20.511 -115.462)" fill="#fff"/>
    <path id="Tracé_90" data-name="Tracé 90" d="M14.572,117.44a2.458,2.458,0,0,1,1.27.385l.808-1.886a4.177,4.177,0,0,0-2.078-.539,4.272,4.272,0,1,0,2.078,8.005l-.808-1.886a2.353,2.353,0,0,1-1.27.385,2.232,2.232,0,0,1,0-4.464Z" transform="translate(-10.3 -115.4)" fill="#fff"/>
  </g>
  <g id="Groupe_215" data-name="Groupe 215" transform="translate(13.008 8.852)">
    <path id="Tracé_91" data-name="Tracé 91" d="M33.8,62.832h5.042l9.429-20.205L45.731,37.2Z" transform="translate(-33.8 -31.735)" fill="#fff"/>
    <path id="Tracé_92" data-name="Tracé 92" d="M77.866,26h0a5.1,5.1,0,0,0-4.618-3H71.4L85.871,54.1h5.08Z" transform="translate(-56.929 -23)" fill="#fff"/>
  </g>
</svg>
