<svg id="icone_transport_2" xmlns="http://www.w3.org/2000/svg" xmlns:xlink="http://www.w3.org/1999/xlink" width="70" height="70" viewBox="0 0 70 70">
  <defs>
    <clipPath id="clip-path">
      <rect id="Rectangle_91" data-name="Rectangle 91" width="70" height="70" fill="#d1ab09" stroke="#fff" stroke-width="0.5"/>
    </clipPath>
  </defs>
  <g id="Groupe_110" data-name="Groupe 110" transform="translate(0 0)" clip-path="url(#clip-path)">
    <path id="Tracé_67" data-name="Tracé 67" d="M70,4.734a5.139,5.139,0,0,0-1.116-3.61l0-.007A5.13,5.13,0,0,0,65.266,0a13.106,13.106,0,0,0-8.957,3.758L44.7,15.364,5.674,6.762a1.343,1.343,0,0,0-1.241.362L.394,11.164A1.344,1.344,0,0,0,.715,13.3L30.784,29.282c-5.689,5.7-11.965,12.576-14.793,16.488H4.329a1.328,1.328,0,0,0-.9.347L.444,48.809a1.348,1.348,0,0,0,.4,2.249l11.567,4.624L8.471,59.624a1.346,1.346,0,1,0,1.9,1.9l3.943-3.942,4.625,11.567a1.342,1.342,0,0,0,1.011.825,1.264,1.264,0,0,0,.234.022,1.369,1.369,0,0,0,1-.444l2.691-2.982a1.348,1.348,0,0,0,.347-.9V54c3.905-2.828,10.792-9.1,16.486-14.782L56.695,69.285a1.349,1.349,0,0,0,.992.7,1.44,1.44,0,0,0,.2.015,1.344,1.344,0,0,0,.949-.393l4.037-4.038a1.355,1.355,0,0,0,.363-1.243L54.636,25.3,66.244,13.692A13.149,13.149,0,0,0,70,4.734M3.586,11.782,5.814,9.548l36.629,8.074-9.668,9.668Zm56.863,52.4-2.231,2.231L42.711,37.224l9.667-9.667ZM38.9,37.229c-5.9,5.908-13.33,12.616-16.77,14.958A1.337,1.337,0,0,0,21.54,53.3V65.157l-.9.992L16.387,55.517l7.451-7.45a1.347,1.347,0,1,0-1.906-1.9l-7.447,7.448L3.849,49.358l1-.9,11.842,0a1.354,1.354,0,0,0,1.112-.586c2.34-3.442,9.05-10.861,14.972-16.773L58.212,5.662a10.462,10.462,0,0,1,7.054-2.971,3.477,3.477,0,0,1,1.707.328h0v0h0a1.192,1.192,0,0,1,.188.443A5.193,5.193,0,0,1,67.3,4.734a10.494,10.494,0,0,1-2.966,7.054Zm7.268,21.048-8.077,8.077a1.347,1.347,0,0,0,1.9,1.9l8.077-8.077a1.347,1.347,0,0,0-1.9-1.9M14.413,37.3l8.078-8.078a1.346,1.346,0,0,0-1.906-1.9l-8.077,8.077a1.345,1.345,0,0,0,.953,2.3,1.336,1.336,0,0,0,.952-.393M3.644,31.915l8.078-8.08a1.347,1.347,0,1,0-1.906-1.9L1.741,30.01a1.346,1.346,0,0,0,1.9,1.9m39.04,15.594a1.351,1.351,0,0,0-1.9,0L32.7,55.587a1.347,1.347,0,0,0,1.906,1.9l8.077-8.076a1.35,1.35,0,0,0,0-1.906M59.231,6.729a1.347,1.347,0,0,0,0,2.694,1.35,1.35,0,0,1,1.347,1.346,1.346,1.346,0,1,0,2.692,0,4.041,4.041,0,0,0-4.04-4.04" transform="translate(0 0)" fill="#d1ab09" stroke="#fff" stroke-width="0.5"/>
  </g>
</svg>
