<svg xmlns="http://www.w3.org/2000/svg" width="60.333" height="72.414" viewBox="0 0 60.333 72.414">
  <g id="icone_transport_3" transform="translate(-284 -76)">
    <path id="Tracé_114" data-name="Tracé 114" d="M331.667,138.15A11.658,11.658,0,0,0,343.333,126.5V93.016c0-7.006-1.458-16.016-29.167-16.016S285,86.009,285,93.016V126.5a11.658,11.658,0,0,0,11.667,11.648Z" fill="none" stroke="#d1ab09" stroke-width="2"/>
    <ellipse id="Ellipse_49" data-name="Ellipse 49" cx="4.5" cy="4" rx="4.5" ry="4" transform="translate(292 118.267)" fill="none" stroke="#d1ab09" stroke-width="2"/>
    <ellipse id="Ellipse_50" data-name="Ellipse 50" cx="4.5" cy="4" rx="4.5" ry="4" transform="translate(327.333 118.267)" fill="none" stroke="#d1ab09" stroke-width="2"/>
    <line id="Ligne_23" data-name="Ligne 23" x1="9" y2="9" transform="translate(292 138)" fill="none" stroke="#d1ab09" stroke-linecap="round" stroke-width="2"/>
    <line id="Ligne_24" data-name="Ligne 24" x2="9" y2="9" transform="translate(327.333 138)" fill="none" stroke="#d1ab09" stroke-linecap="round" stroke-width="2"/>
    <rect id="Rectangle_209" data-name="Rectangle 209" width="46.333" height="21" transform="translate(291 91.562)" fill="none" stroke="#d1ab09" stroke-linecap="round" stroke-linejoin="round" stroke-width="2"/>
    <line id="Ligne_25" data-name="Ligne 25" x2="23" transform="translate(302.667 85.8)" fill="none" stroke="#d1ab09" stroke-linecap="round" stroke-linejoin="round" stroke-width="2"/>
    <line id="Ligne_26" data-name="Ligne 26" x2="38.333" transform="translate(295 144)" fill="none" stroke="#d1ab09" stroke-linecap="round" stroke-linejoin="round" stroke-width="2"/>
  </g>
</svg>
