<svg xmlns="http://www.w3.org/2000/svg" width="68.957" height="72.414" viewBox="0 0 68.957 72.414">
  <g id="icone_transport_1" transform="translate(-202 -258)">
    <path id="Tracé_104" data-name="Tracé 104" d="M248.545,316.287a9.134,9.134,0,0,0,9.126-9.143V279.41c0-5.867-1.217-13.41-24.335-13.41S209,273.543,209,279.41v27.734a9.134,9.134,0,0,0,9.126,9.143Z" transform="translate(3.143 3.569)" fill="none" stroke="#d1ab09" stroke-width="2"/>
    <circle id="Ellipse_47" data-name="Ellipse 47" cx="3" cy="3" r="3" transform="translate(217.977 306.026)" fill="none" stroke="#d1ab09" stroke-width="2"/>
    <circle id="Ellipse_48" data-name="Ellipse 48" cx="3" cy="3" r="3" transform="translate(246.933 306.026)" fill="none" stroke="#d1ab09" stroke-width="2"/>
    <line id="Ligne_18" data-name="Ligne 18" x1="9" y2="9" transform="translate(217.976 320)" fill="none" stroke="#d1ab09" stroke-linecap="round" stroke-width="2"/>
    <line id="Ligne_19" data-name="Ligne 19" x2="9" y2="9" transform="translate(245.931 320)" fill="none" stroke="#d1ab09" stroke-linecap="round" stroke-width="2"/>
    <rect id="Rectangle_208" data-name="Rectangle 208" width="38.907" height="16" transform="translate(217 283.054)" fill="none" stroke="#d1ab09" stroke-linecap="round" stroke-linejoin="round" stroke-width="2"/>
    <line id="Ligne_20" data-name="Ligne 20" x2="19" transform="translate(226.953 277.072)" fill="none" stroke="#d1ab09" stroke-linecap="round" stroke-linejoin="round" stroke-width="2"/>
    <line id="Ligne_21" data-name="Ligne 21" x2="31" transform="translate(220.953 326)" fill="none" stroke="#d1ab09" stroke-linecap="round" stroke-linejoin="round" stroke-width="2"/>
    <path id="Tracé_105" data-name="Tracé 105" d="M203,325.952V274.216A15.217,15.217,0,0,1,218.217,259h36.522a15.217,15.217,0,0,1,15.217,15.216v51.736" transform="translate(0)" fill="none" stroke="#d1ab09" stroke-linecap="round" stroke-linejoin="round" stroke-width="2"/>
  </g>
</svg>
