<svg xmlns="http://www.w3.org/2000/svg" width="72" height="47" viewBox="0 0 72 47">
  <g id="icone_transport_4" transform="translate(-356 -88)">
    <path id="Tracé_106" data-name="Tracé 106" d="M419.2,125.107V113.574a9.978,9.978,0,0,0-.594-3.392L412.328,93.8a7.462,7.462,0,0,0-6.967-4.8H375.834a7.462,7.462,0,0,0-6.967,4.8l-6.273,16.387a9.978,9.978,0,0,0-.594,3.392v11.533a2.488,2.488,0,0,0,2.487,2.49h52.222A2.488,2.488,0,0,0,419.2,125.107Z" transform="translate(1.402)" fill="none" stroke="#d1ab09" stroke-linecap="round" stroke-linejoin="round" stroke-width="2"/>
    <path id="Tracé_107" data-name="Tracé 107" d="M362,118v6.4a2.56,2.56,0,0,0,2.561,2.561H368.4a2.56,2.56,0,0,0,2.561-2.561v-3.841" transform="translate(1.402 7.037)" fill="none" stroke="#d1ab09" stroke-width="2"/>
    <path id="Tracé_108" data-name="Tracé 108" d="M409.963,118v6.4a2.56,2.56,0,0,1-2.561,2.561h-3.841A2.56,2.56,0,0,1,401,124.4v-3.841" transform="translate(10.634 7.037)" fill="none" stroke="#d1ab09" stroke-width="2"/>
    <path id="Tracé_109" data-name="Tracé 109" d="M364,103l1.81.624a12.043,12.043,0,0,0,3.922.657h40.61a12.03,12.03,0,0,0,3.92-.657l1.811-.624" transform="translate(1.963 3.488)" fill="none" stroke="#d1ab09" stroke-linecap="round" stroke-linejoin="round" stroke-width="2"/>
    <path id="Tracé_110" data-name="Tracé 110" d="M373.963,114.122h-5.122A3.841,3.841,0,0,1,365,110.28a1.281,1.281,0,0,1,1.28-1.28H371.4a3.841,3.841,0,0,1,3.841,3.841A1.281,1.281,0,0,1,373.963,114.122Z" transform="translate(2.244 4.924)" fill="none" stroke="#d1ab09" stroke-width="2"/>
    <line id="Ligne_22" data-name="Ligne 22" x1="20" transform="translate(382.141 122.286)" fill="none" stroke="#d1ab09" stroke-linecap="round" stroke-width="2"/>
    <path id="Tracé_111" data-name="Tracé 111" d="M403.4,114.122H398.28A1.281,1.281,0,0,1,397,112.841,3.841,3.841,0,0,1,400.841,109h5.122a1.281,1.281,0,0,1,1.281,1.28A3.841,3.841,0,0,1,403.4,114.122Z" transform="translate(9.512 4.924)" fill="none" stroke="#d1ab09" stroke-width="2"/>
    <path id="Tracé_112" data-name="Tracé 112" d="M364.683,103.122H360.2a3.2,3.2,0,0,1-3.2-3.2h0A1.921,1.921,0,0,1,358.921,98h3.841a1.921,1.921,0,0,1,1.921,1.921Z" transform="translate(0 2.216)" fill="none" stroke="#d1ab09" stroke-width="2"/>
    <path id="Tracé_113" data-name="Tracé 113" d="M407,103.122h4.482a3.2,3.2,0,0,0,3.2-3.2h0A1.921,1.921,0,0,0,412.762,98h-3.841A1.921,1.921,0,0,0,407,99.921Z" transform="translate(12.317 2.216)" fill="none" stroke="#d1ab09" stroke-width="2"/>
  </g>
</svg>
