<svg id="Composant_11_2" data-name="Composant 11 – 2" xmlns="http://www.w3.org/2000/svg" width="80" height="80" viewBox="0 0 80 80">
  <circle id="Ellipse_6" data-name="Ellipse 6" cx="40" cy="40" r="40" fill="#42145f"/>
  <path id="icon_down" d="M18.834,33.213a1.717,1.717,0,0,0,1.243-.516L35.221,17.9a1.806,1.806,0,0,0,.573-1.281,1.68,1.68,0,0,0-.573-1.281L20.077.516A1.749,1.749,0,0,0,18.834,0a1.731,1.731,0,0,0-1.759,1.759A1.871,1.871,0,0,0,17.591,3l13.92,13.614L17.591,30.23a1.833,1.833,0,0,0-.516,1.243A1.715,1.715,0,0,0,18.834,33.213Zm-17.094,0A1.794,1.794,0,0,0,3,32.7L18.146,17.9a1.784,1.784,0,0,0,.555-1.281,1.663,1.663,0,0,0-.555-1.281L2.983.516A1.717,1.717,0,0,0,1.74,0,1.715,1.715,0,0,0,0,1.759,1.852,1.852,0,0,0,.5,3l13.92,13.614L.5,30.23A1.816,1.816,0,0,0,0,31.473,1.7,1.7,0,0,0,1.74,33.213Z" transform="translate(56.564 22.126) rotate(90)" fill="#fff"/>
</svg>
