<svg xmlns="http://www.w3.org/2000/svg" width="40" height="40" viewBox="0 0 48 48">
  <g id="Groupe_314" data-name="Groupe 314" transform="translate(-135.372 -1361)">
    <circle id="Ellipse_17" data-name="Ellipse 17" cx="20" cy="20" r="20" transform="translate(135.372 1361)" fill="#fff" opacity="0.69"/>
    <path id="icon_down" d="M1.572,30a1.621,1.621,0,0,0,1.14-.466L16.39,16.166a1.612,1.612,0,0,0,.5-1.157,1.5,1.5,0,0,0-.5-1.157L2.694.466A1.551,1.551,0,0,0,1.572,0,1.549,1.549,0,0,0,0,1.589,1.673,1.673,0,0,0,.449,2.712l12.573,12.3L.449,27.306A1.64,1.64,0,0,0,0,28.428,1.535,1.535,0,0,0,1.572,30Z" transform="translate(166.263 1400.651) rotate(180)" fill="#42145f"/>
  </g>
</svg>
