<svg id="icon_surface" xmlns="http://www.w3.org/2000/svg" width="40" height="40" viewBox="0 0 40 40">
  <path id="Tracé_28" data-name="Tracé 28" d="M335.134,334.06v1.074h-1.074v1.432h2.507V334.06Z" transform="translate(-296.566 -296.567)" fill="#42145f"/>
  <path id="Tracé_29" data-name="Tracé 29" d="M47.089,344.492H50.54V343.06H47.089Zm6.327,0h3.451V343.06H53.416Zm6.327,0h3.451V343.06H59.742Zm6.327,0H69.52V343.06H66.069Zm6.327,0h3.451V343.06H72.4Z" transform="translate(-41.468 -304.493)" fill="#42145f"/>
  <path id="Tracé_30" data-name="Tracé 30" d="M0,334.06v2.507H2.507v-1.432H1.432V334.06Z" transform="translate(0 -296.567)" fill="#42145f"/>
  <path id="Tracé_31" data-name="Tracé 31" d="M0,75.847H1.432V72.4H0ZM0,69.52H1.432V66.069H0Zm0-6.327H1.432V59.742H0Zm0-6.327H1.432V53.416H0ZM0,50.54H1.432V47.089H0Z" transform="translate(0 -41.468)" fill="#42145f"/>
  <path id="Tracé_32" data-name="Tracé 32" d="M0,0V2.507H1.432V1.433H2.507V0Z" transform="translate(0 0)" fill="#42145f"/>
  <path id="Tracé_33" data-name="Tracé 33" d="M47.089,1.433H50.54V0H47.089Zm6.327,0h3.451V0H53.416Zm6.327,0h3.451V0H59.742Zm6.327,0H69.52V0H66.069Zm6.327,0h3.451V0H72.4Z" transform="translate(-41.468)" fill="#42145f"/>
  <path id="Tracé_34" data-name="Tracé 34" d="M334.059,0V1.433h1.074V2.507h1.433V0Z" transform="translate(-296.566 0)" fill="#42145f"/>
  <path id="Tracé_35" data-name="Tracé 35" d="M343.059,75.847h1.433V72.4h-1.433Zm0-6.327h1.433V66.069h-1.433Zm0-6.327h1.433V59.742h-1.433Zm0-6.327h1.433V53.416h-1.433Zm0-6.327h1.433V47.089h-1.433Z" transform="translate(-304.492 -41.468)" fill="#42145f"/>
  <path id="Tracé_36" data-name="Tracé 36" d="M153.167,153.168h21.406v21.406H153.167Zm-1.432,22.839h24.271V151.736H151.735Z" transform="translate(-136.007 -136.007)" fill="#42145f"/>
</svg>
