<svg xmlns="http://www.w3.org/2000/svg" width="28.889" height="20" viewBox="0 0 28.889 20">
  <g id="mail" transform="translate(-3 -7)">
    <path id="Tracé_71" data-name="Tracé 71" d="M30.778,13a1.111,1.111,0,0,0-1.111,1.111V23a1.111,1.111,0,0,1-1.111,1.111H6.333A1.111,1.111,0,0,1,5.222,23V14.111a1.111,1.111,0,1,0-2.222,0V23a3.338,3.338,0,0,0,3.333,3.333H28.556A3.338,3.338,0,0,0,31.889,23V14.111A1.111,1.111,0,0,0,30.778,13Z" transform="translate(0 0.667)"/>
    <path id="Tracé_72" data-name="Tracé 72" d="M16.756,20.111a1.111,1.111,0,0,0,1.333,0l13.122-9.844A1.111,1.111,0,0,0,31.545,8.9a3.4,3.4,0,0,0-.656-.922A3.333,3.333,0,0,0,28.534,7H6.312a3.333,3.333,0,0,0-2.356.978A3.4,3.4,0,0,0,3.3,8.9a1.111,1.111,0,0,0,.333,1.367ZM6.312,9.222H28.534a1,1,0,0,1,.311,0L17.423,17.833,6,9.222a1,1,0,0,1,.311,0Z" transform="translate(0.021 0)"/>
  </g>
</svg>
